<mxfile modified="2020-06-02T10:19:39.487Z" host="" agent="5.0 (Windows NT 10.0; Win64; x64) AppleWebKit/537.36 (KHTML, like Gecko) Code/1.45.1 Chrome/78.0.3904.130 Electron/7.2.4 Safari/537.36" etag="JdMmw3EZJBVySKTwjXOQ" version="13.1.3">
    <diagram id="Ht1M8jgEwFfnCIfOTk4-" name="Page-1">
        <mxGraphModel dx="1723" dy="1162" grid="1" gridSize="10" guides="1" tooltips="1" connect="1" arrows="1" fold="1" page="1" pageScale="1" pageWidth="1169" pageHeight="827" math="0" shadow="0">
            <root>
                <mxCell id="0"/>
                <mxCell id="1" parent="0"/>
                <mxCell id="y6Wk35keW9Kun2M8HE3B-1" value="BTC Feeder" style="verticalLabelPosition=bottom;aspect=fixed;html=1;verticalAlign=top;strokeColor=none;align=center;outlineConnect=0;shape=mxgraph.citrix.license_server;fontSize=18;" parent="1" vertex="1">
                    <mxGeometry x="570" y="400" width="65" height="85" as="geometry"/>
                </mxCell>
                <mxCell id="y6Wk35keW9Kun2M8HE3B-21" style="edgeStyle=none;rounded=0;orthogonalLoop=1;jettySize=auto;html=1;startArrow=classic;startFill=1;fontSize=18;" parent="1" source="y6Wk35keW9Kun2M8HE3B-4" target="y6Wk35keW9Kun2M8HE3B-9" edge="1">
                    <mxGeometry relative="1" as="geometry"/>
                </mxCell>
                <mxCell id="y6Wk35keW9Kun2M8HE3B-22" style="edgeStyle=none;rounded=0;orthogonalLoop=1;jettySize=auto;html=1;startArrow=classic;startFill=1;fontSize=18;" parent="1" source="y6Wk35keW9Kun2M8HE3B-4" target="y6Wk35keW9Kun2M8HE3B-1" edge="1">
                    <mxGeometry relative="1" as="geometry"/>
                </mxCell>
                <mxCell id="y6Wk35keW9Kun2M8HE3B-4" value="Explorer" style="verticalLabelPosition=bottom;aspect=fixed;html=1;verticalAlign=top;strokeColor=none;align=center;outlineConnect=0;shape=mxgraph.citrix.laptop_1;fontSize=18;" parent="1" vertex="1">
                    <mxGeometry x="300" y="280" width="91" height="77" as="geometry"/>
                </mxCell>
                <mxCell id="y6Wk35keW9Kun2M8HE3B-17" style="edgeStyle=none;rounded=0;orthogonalLoop=1;jettySize=auto;html=1;startArrow=classic;startFill=1;fontSize=18;" parent="1" source="y6Wk35keW9Kun2M8HE3B-5" target="y6Wk35keW9Kun2M8HE3B-4" edge="1">
                    <mxGeometry relative="1" as="geometry"/>
                </mxCell>
                <mxCell id="y6Wk35keW9Kun2M8HE3B-18" style="edgeStyle=none;rounded=0;orthogonalLoop=1;jettySize=auto;html=1;startArrow=classic;startFill=1;fontSize=18;" parent="1" source="y6Wk35keW9Kun2M8HE3B-5" target="y6Wk35keW9Kun2M8HE3B-9" edge="1">
                    <mxGeometry relative="1" as="geometry"/>
                </mxCell>
                <mxCell id="y6Wk35keW9Kun2M8HE3B-5" value="Explorer" style="verticalLabelPosition=bottom;aspect=fixed;html=1;verticalAlign=top;strokeColor=none;align=center;outlineConnect=0;shape=mxgraph.citrix.laptop_2;fontSize=18;" parent="1" vertex="1">
                    <mxGeometry x="350" y="100" width="116" height="86.5" as="geometry"/>
                </mxCell>
                <mxCell id="y6Wk35keW9Kun2M8HE3B-23" style="edgeStyle=none;rounded=0;orthogonalLoop=1;jettySize=auto;html=1;startArrow=classic;startFill=1;fontSize=18;" parent="1" source="y6Wk35keW9Kun2M8HE3B-7" target="y6Wk35keW9Kun2M8HE3B-1" edge="1">
                    <mxGeometry relative="1" as="geometry"/>
                </mxCell>
                <mxCell id="y6Wk35keW9Kun2M8HE3B-27" style="edgeStyle=none;rounded=0;orthogonalLoop=1;jettySize=auto;html=1;startArrow=classic;startFill=1;fontSize=18;" parent="1" source="y6Wk35keW9Kun2M8HE3B-7" target="y6Wk35keW9Kun2M8HE3B-9" edge="1">
                    <mxGeometry relative="1" as="geometry"/>
                </mxCell>
                <mxCell id="y6Wk35keW9Kun2M8HE3B-7" value="Explorer" style="verticalLabelPosition=bottom;aspect=fixed;html=1;verticalAlign=top;strokeColor=none;align=center;outlineConnect=0;shape=mxgraph.citrix.tablet_2;fontSize=18;" parent="1" vertex="1">
                    <mxGeometry x="360" y="465" width="82" height="86" as="geometry"/>
                </mxCell>
                <mxCell id="y6Wk35keW9Kun2M8HE3B-9" value="BTC Feeder" style="verticalLabelPosition=bottom;aspect=fixed;html=1;verticalAlign=top;strokeColor=none;align=center;outlineConnect=0;shape=mxgraph.citrix.license_server;fontSize=18;" parent="1" vertex="1">
                    <mxGeometry x="570" y="250" width="65" height="85" as="geometry"/>
                </mxCell>
                <mxCell id="y6Wk35keW9Kun2M8HE3B-14" style="edgeStyle=none;rounded=0;orthogonalLoop=1;jettySize=auto;html=1;fontSize=18;" parent="1" source="y6Wk35keW9Kun2M8HE3B-12" target="y6Wk35keW9Kun2M8HE3B-9" edge="1">
                    <mxGeometry relative="1" as="geometry"/>
                </mxCell>
                <mxCell id="y6Wk35keW9Kun2M8HE3B-15" style="edgeStyle=none;rounded=0;orthogonalLoop=1;jettySize=auto;html=1;fontSize=18;" parent="1" source="y6Wk35keW9Kun2M8HE3B-12" target="y6Wk35keW9Kun2M8HE3B-1" edge="1">
                    <mxGeometry relative="1" as="geometry"/>
                </mxCell>
                <mxCell id="y6Wk35keW9Kun2M8HE3B-12" value="BTC Data source" style="verticalLabelPosition=bottom;aspect=fixed;html=1;verticalAlign=top;strokeColor=none;align=center;outlineConnect=0;shape=mxgraph.citrix.globe;fontSize=18;" parent="1" vertex="1">
                    <mxGeometry x="760" y="325" width="78.5" height="75" as="geometry"/>
                </mxCell>
                <mxCell id="UWvzs5xQLhtXo-LFd0Eg-1" style="edgeStyle=none;rounded=0;orthogonalLoop=1;jettySize=auto;html=1;startArrow=classic;startFill=1;fontSize=18;" parent="1" source="y6Wk35keW9Kun2M8HE3B-4" target="y6Wk35keW9Kun2M8HE3B-7" edge="1">
                    <mxGeometry relative="1" as="geometry">
                        <mxPoint x="402.5756062767475" y="196.5" as="sourcePoint"/>
                        <mxPoint x="369.2303851640513" y="290" as="targetPoint"/>
                    </mxGeometry>
                </mxCell>
                <mxCell id="UWvzs5xQLhtXo-LFd0Eg-4" style="edgeStyle=orthogonalEdgeStyle;rounded=0;orthogonalLoop=1;jettySize=auto;html=1;fontSize=18;" parent="1" source="UWvzs5xQLhtXo-LFd0Eg-3" target="y6Wk35keW9Kun2M8HE3B-5" edge="1">
                    <mxGeometry relative="1" as="geometry"/>
                </mxCell>
                <mxCell id="UWvzs5xQLhtXo-LFd0Eg-3" value="User" style="outlineConnect=0;fontColor=#232F3E;gradientColor=none;fillColor=#232F3E;strokeColor=none;dashed=0;verticalLabelPosition=bottom;verticalAlign=top;align=center;html=1;fontSize=18;fontStyle=0;aspect=fixed;pointerEvents=1;shape=mxgraph.aws4.user;" parent="1" vertex="1">
                    <mxGeometry x="150" y="104.25" width="78" height="78" as="geometry"/>
                </mxCell>
                <mxCell id="UWvzs5xQLhtXo-LFd0Eg-6" style="edgeStyle=orthogonalEdgeStyle;rounded=0;orthogonalLoop=1;jettySize=auto;html=1;fontSize=18;" parent="1" source="UWvzs5xQLhtXo-LFd0Eg-5" target="y6Wk35keW9Kun2M8HE3B-4" edge="1">
                    <mxGeometry relative="1" as="geometry">
                        <Array as="points">
                            <mxPoint x="280" y="339"/>
                            <mxPoint x="280" y="339"/>
                        </Array>
                    </mxGeometry>
                </mxCell>
                <mxCell id="UWvzs5xQLhtXo-LFd0Eg-5" value="User" style="outlineConnect=0;fontColor=#232F3E;gradientColor=none;fillColor=#232F3E;strokeColor=none;dashed=0;verticalLabelPosition=bottom;verticalAlign=top;align=center;html=1;fontSize=18;fontStyle=0;aspect=fixed;pointerEvents=1;shape=mxgraph.aws4.user;" parent="1" vertex="1">
                    <mxGeometry x="150" y="300" width="78" height="78" as="geometry"/>
                </mxCell>
                <mxCell id="UWvzs5xQLhtXo-LFd0Eg-8" style="edgeStyle=orthogonalEdgeStyle;rounded=0;orthogonalLoop=1;jettySize=auto;html=1;fontSize=18;" parent="1" source="UWvzs5xQLhtXo-LFd0Eg-7" target="y6Wk35keW9Kun2M8HE3B-7" edge="1">
                    <mxGeometry relative="1" as="geometry">
                        <Array as="points">
                            <mxPoint x="260" y="500"/>
                            <mxPoint x="260" y="500"/>
                        </Array>
                    </mxGeometry>
                </mxCell>
                <mxCell id="UWvzs5xQLhtXo-LFd0Eg-7" value="User" style="outlineConnect=0;fontColor=#232F3E;gradientColor=none;fillColor=#232F3E;strokeColor=none;dashed=0;verticalLabelPosition=bottom;verticalAlign=top;align=center;html=1;fontSize=18;fontStyle=0;aspect=fixed;pointerEvents=1;shape=mxgraph.aws4.user;" parent="1" vertex="1">
                    <mxGeometry x="150" y="465" width="78" height="78" as="geometry"/>
                </mxCell>
                <mxCell id="DUzkG-Q9KN32R_mAgUxg-1" value="ETH Data source" style="verticalLabelPosition=bottom;aspect=fixed;html=1;verticalAlign=top;strokeColor=none;align=center;outlineConnect=0;shape=mxgraph.citrix.globe;fontSize=18;" parent="1" vertex="1">
                    <mxGeometry x="760" y="120" width="78.5" height="75" as="geometry"/>
                </mxCell>
                <mxCell id="DUzkG-Q9KN32R_mAgUxg-3" style="rounded=0;orthogonalLoop=1;jettySize=auto;html=1;startArrow=classic;startFill=1;fontSize=18;" parent="1" source="DUzkG-Q9KN32R_mAgUxg-2" target="y6Wk35keW9Kun2M8HE3B-5" edge="1">
                    <mxGeometry relative="1" as="geometry"/>
                </mxCell>
                <mxCell id="DUzkG-Q9KN32R_mAgUxg-4" style="edgeStyle=none;rounded=0;orthogonalLoop=1;jettySize=auto;html=1;startArrow=classic;startFill=1;fontSize=18;" parent="1" source="DUzkG-Q9KN32R_mAgUxg-2" target="DUzkG-Q9KN32R_mAgUxg-1" edge="1">
                    <mxGeometry relative="1" as="geometry"/>
                </mxCell>
                <mxCell id="DUzkG-Q9KN32R_mAgUxg-6" style="edgeStyle=none;rounded=0;orthogonalLoop=1;jettySize=auto;html=1;startArrow=classic;startFill=1;fontSize=18;" parent="1" source="DUzkG-Q9KN32R_mAgUxg-2" target="y6Wk35keW9Kun2M8HE3B-9" edge="1">
                    <mxGeometry relative="1" as="geometry"/>
                </mxCell>
                <mxCell id="DUzkG-Q9KN32R_mAgUxg-7" style="edgeStyle=none;rounded=0;orthogonalLoop=1;jettySize=auto;html=1;startArrow=classic;startFill=1;fontSize=18;" parent="1" source="DUzkG-Q9KN32R_mAgUxg-2" target="y6Wk35keW9Kun2M8HE3B-4" edge="1">
                    <mxGeometry relative="1" as="geometry"/>
                </mxCell>
                <mxCell id="DUzkG-Q9KN32R_mAgUxg-2" value="ETH Feeder" style="verticalLabelPosition=top;aspect=fixed;html=1;verticalAlign=bottom;strokeColor=none;align=center;outlineConnect=0;shape=mxgraph.citrix.license_server;labelPosition=center;fontSize=18;" parent="1" vertex="1">
                    <mxGeometry x="570" y="80" width="65" height="85" as="geometry"/>
                </mxCell>
            </root>
        </mxGraphModel>
    </diagram>
</mxfile>